<svg width="48" height="48" viewBox="0 0 48 48" fill="none" xmlns="http://www.w3.org/2000/svg">
<path d="M16.7143 24.5C16.7143 20.7419 19.7332 17.7143 23.434 17.7143C25.0827 17.7143 26.5948 18.3134 27.7664 19.3125L26.1185 21.0976C25.637 21.6192 26.007 22.4641 26.7169 22.4642L32.1856 22.4643C32.6353 22.4643 32.9999 22.0997 32.9999 21.65L33 16.1073C33 15.2302 31.9234 14.8092 31.3284 15.4537L29.6082 17.3172C27.9554 15.8755 25.7973 15 23.434 15C18.2133 15 14 19.2637 14 24.5C14 29.7363 18.2133 34 23.434 34C27.717 34 31.3212 31.1292 32.478 27.2108C32.6902 26.4919 32.2795 25.7371 31.5606 25.5249C30.8417 25.3127 30.087 25.7234 29.8748 26.4423C29.0456 29.251 26.4686 31.2857 23.434 31.2857C19.7332 31.2857 16.7143 28.2581 16.7143 24.5Z" fill="#765FDE"/>
</svg>
